<mxfile host="Electron" modified="2023-05-24T11:50:25.431Z" agent="Mozilla/5.0 (Windows NT 10.0; Win64; x64) AppleWebKit/537.36 (KHTML, like Gecko) draw.io/21.2.8 Chrome/112.0.5615.165 Electron/24.2.0 Safari/537.36" etag="PFjX1-dm0FrQ8E3oje5h" version="21.2.8" type="device">
  <diagram name="Page-1" id="fZ-qlxvH8jsWFTkBSknb">
    <mxGraphModel dx="2924" dy="1196" grid="1" gridSize="10" guides="1" tooltips="1" connect="1" arrows="1" fold="1" page="1" pageScale="1" pageWidth="850" pageHeight="1100" math="0" shadow="0">
      <root>
        <mxCell id="0" />
        <mxCell id="1" parent="0" />
        <mxCell id="YjB5FXLg3M71PnOlWHJf-35" value="" style="rounded=0;whiteSpace=wrap;html=1;" vertex="1" parent="1">
          <mxGeometry x="-340" y="40" width="1000" height="380" as="geometry" />
        </mxCell>
        <mxCell id="YjB5FXLg3M71PnOlWHJf-42" value="" style="rounded=0;whiteSpace=wrap;html=1;" vertex="1" parent="1">
          <mxGeometry x="-310" y="180" width="940" height="140" as="geometry" />
        </mxCell>
        <mxCell id="YjB5FXLg3M71PnOlWHJf-46" style="edgeStyle=orthogonalEdgeStyle;rounded=0;orthogonalLoop=1;jettySize=auto;html=1;" edge="1" parent="1" source="YjB5FXLg3M71PnOlWHJf-33" target="YjB5FXLg3M71PnOlWHJf-45">
          <mxGeometry relative="1" as="geometry" />
        </mxCell>
        <mxCell id="YjB5FXLg3M71PnOlWHJf-33" value="" style="rounded=0;whiteSpace=wrap;html=1;" vertex="1" parent="1">
          <mxGeometry x="-340" y="470" width="1000" height="510" as="geometry" />
        </mxCell>
        <mxCell id="YjB5FXLg3M71PnOlWHJf-8" value="Background: Layer" style="swimlane;fontStyle=0;childLayout=stackLayout;horizontal=1;startSize=30;horizontalStack=0;resizeParent=1;resizeParentMax=0;resizeLast=0;collapsible=1;marginBottom=0;whiteSpace=wrap;html=1;" vertex="1" parent="1">
          <mxGeometry x="470" y="580" width="140" height="60" as="geometry" />
        </mxCell>
        <mxCell id="YjB5FXLg3M71PnOlWHJf-12" value="SlotFrame: Layer" style="swimlane;fontStyle=0;childLayout=stackLayout;horizontal=1;startSize=30;horizontalStack=0;resizeParent=1;resizeParentMax=0;resizeLast=0;collapsible=1;marginBottom=0;whiteSpace=wrap;html=1;" vertex="1" parent="1">
          <mxGeometry x="260" y="580" width="140" height="60" as="geometry" />
        </mxCell>
        <mxCell id="YjB5FXLg3M71PnOlWHJf-13" value="reels: Reels" style="text;strokeColor=none;fillColor=none;align=left;verticalAlign=middle;spacingLeft=4;spacingRight=4;overflow=hidden;points=[[0,0.5],[1,0.5]];portConstraint=eastwest;rotatable=0;whiteSpace=wrap;html=1;" vertex="1" parent="YjB5FXLg3M71PnOlWHJf-12">
          <mxGeometry y="30" width="140" height="30" as="geometry" />
        </mxCell>
        <mxCell id="YjB5FXLg3M71PnOlWHJf-16" value="Reels: Prefab" style="swimlane;fontStyle=0;childLayout=stackLayout;horizontal=1;startSize=30;horizontalStack=0;resizeParent=1;resizeParentMax=0;resizeLast=0;collapsible=1;marginBottom=0;whiteSpace=wrap;html=1;" vertex="1" parent="1">
          <mxGeometry x="260" y="670" width="140" height="60" as="geometry" />
        </mxCell>
        <mxCell id="YjB5FXLg3M71PnOlWHJf-17" value="symbols: ReelSymbols[]" style="text;strokeColor=none;fillColor=none;align=left;verticalAlign=middle;spacingLeft=4;spacingRight=4;overflow=hidden;points=[[0,0.5],[1,0.5]];portConstraint=eastwest;rotatable=0;whiteSpace=wrap;html=1;" vertex="1" parent="YjB5FXLg3M71PnOlWHJf-16">
          <mxGeometry y="30" width="140" height="30" as="geometry" />
        </mxCell>
        <mxCell id="YjB5FXLg3M71PnOlWHJf-18" value="ReelSymbol: Prefab" style="swimlane;fontStyle=0;childLayout=stackLayout;horizontal=1;startSize=30;horizontalStack=0;resizeParent=1;resizeParentMax=0;resizeLast=0;collapsible=1;marginBottom=0;whiteSpace=wrap;html=1;" vertex="1" parent="1">
          <mxGeometry x="260" y="760" width="140" height="60" as="geometry" />
        </mxCell>
        <mxCell id="YjB5FXLg3M71PnOlWHJf-19" value="texture: Texture" style="text;strokeColor=none;fillColor=none;align=left;verticalAlign=middle;spacingLeft=4;spacingRight=4;overflow=hidden;points=[[0,0.5],[1,0.5]];portConstraint=eastwest;rotatable=0;whiteSpace=wrap;html=1;" vertex="1" parent="YjB5FXLg3M71PnOlWHJf-18">
          <mxGeometry y="30" width="140" height="30" as="geometry" />
        </mxCell>
        <mxCell id="YjB5FXLg3M71PnOlWHJf-20" value="KingCasinoGameplay: Service" style="swimlane;fontStyle=0;childLayout=stackLayout;horizontal=1;startSize=30;horizontalStack=0;resizeParent=1;resizeParentMax=0;resizeLast=0;collapsible=1;marginBottom=0;whiteSpace=wrap;html=1;" vertex="1" parent="1">
          <mxGeometry x="-10" y="580" width="200" height="150" as="geometry" />
        </mxCell>
        <mxCell id="YjB5FXLg3M71PnOlWHJf-21" value="onSpin(): void" style="text;strokeColor=none;fillColor=none;align=left;verticalAlign=middle;spacingLeft=4;spacingRight=4;overflow=hidden;points=[[0,0.5],[1,0.5]];portConstraint=eastwest;rotatable=0;whiteSpace=wrap;html=1;" vertex="1" parent="YjB5FXLg3M71PnOlWHJf-20">
          <mxGeometry y="30" width="200" height="30" as="geometry" />
        </mxCell>
        <mxCell id="YjB5FXLg3M71PnOlWHJf-22" value="onBetIncrease(): void" style="text;strokeColor=none;fillColor=none;align=left;verticalAlign=middle;spacingLeft=4;spacingRight=4;overflow=hidden;points=[[0,0.5],[1,0.5]];portConstraint=eastwest;rotatable=0;whiteSpace=wrap;html=1;" vertex="1" parent="YjB5FXLg3M71PnOlWHJf-20">
          <mxGeometry y="60" width="200" height="30" as="geometry" />
        </mxCell>
        <mxCell id="YjB5FXLg3M71PnOlWHJf-23" value="onBetDecrease(): void" style="text;strokeColor=none;fillColor=none;align=left;verticalAlign=middle;spacingLeft=4;spacingRight=4;overflow=hidden;points=[[0,0.5],[1,0.5]];portConstraint=eastwest;rotatable=0;whiteSpace=wrap;html=1;" vertex="1" parent="YjB5FXLg3M71PnOlWHJf-20">
          <mxGeometry y="90" width="200" height="30" as="geometry" />
        </mxCell>
        <mxCell id="YjB5FXLg3M71PnOlWHJf-31" value="onInit(): void" style="text;strokeColor=none;fillColor=none;align=left;verticalAlign=middle;spacingLeft=4;spacingRight=4;overflow=hidden;points=[[0,0.5],[1,0.5]];portConstraint=eastwest;rotatable=0;whiteSpace=wrap;html=1;" vertex="1" parent="YjB5FXLg3M71PnOlWHJf-20">
          <mxGeometry y="120" width="200" height="30" as="geometry" />
        </mxCell>
        <mxCell id="YjB5FXLg3M71PnOlWHJf-24" value="KingCasinoAPI: Service" style="swimlane;fontStyle=0;childLayout=stackLayout;horizontal=1;startSize=30;horizontalStack=0;resizeParent=1;resizeParentMax=0;resizeLast=0;collapsible=1;marginBottom=0;whiteSpace=wrap;html=1;" vertex="1" parent="1">
          <mxGeometry x="-270" y="580" width="200" height="120" as="geometry" />
        </mxCell>
        <mxCell id="YjB5FXLg3M71PnOlWHJf-25" value="callSpin(): void" style="text;strokeColor=none;fillColor=none;align=left;verticalAlign=middle;spacingLeft=4;spacingRight=4;overflow=hidden;points=[[0,0.5],[1,0.5]];portConstraint=eastwest;rotatable=0;whiteSpace=wrap;html=1;" vertex="1" parent="YjB5FXLg3M71PnOlWHJf-24">
          <mxGeometry y="30" width="200" height="30" as="geometry" />
        </mxCell>
        <mxCell id="YjB5FXLg3M71PnOlWHJf-26" value="getGamePrefernces(): void" style="text;strokeColor=none;fillColor=none;align=left;verticalAlign=middle;spacingLeft=4;spacingRight=4;overflow=hidden;points=[[0,0.5],[1,0.5]];portConstraint=eastwest;rotatable=0;whiteSpace=wrap;html=1;" vertex="1" parent="YjB5FXLg3M71PnOlWHJf-24">
          <mxGeometry y="60" width="200" height="30" as="geometry" />
        </mxCell>
        <mxCell id="YjB5FXLg3M71PnOlWHJf-27" value="getUserBalance(): void" style="text;strokeColor=none;fillColor=none;align=left;verticalAlign=middle;spacingLeft=4;spacingRight=4;overflow=hidden;points=[[0,0.5],[1,0.5]];portConstraint=eastwest;rotatable=0;whiteSpace=wrap;html=1;" vertex="1" parent="YjB5FXLg3M71PnOlWHJf-24">
          <mxGeometry y="90" width="200" height="30" as="geometry" />
        </mxCell>
        <mxCell id="YjB5FXLg3M71PnOlWHJf-34" value="&lt;b&gt;&lt;font style=&quot;font-size: 18px;&quot;&gt;@king-casino/king-of-slots&lt;/font&gt;&lt;/b&gt;" style="text;html=1;strokeColor=none;fillColor=none;align=center;verticalAlign=middle;whiteSpace=wrap;rounded=0;" vertex="1" parent="1">
          <mxGeometry x="-330" y="480" width="240" height="30" as="geometry" />
        </mxCell>
        <mxCell id="YjB5FXLg3M71PnOlWHJf-37" value="&lt;b&gt;&lt;font style=&quot;font-size: 18px;&quot;&gt;@king-casino/slot-base&lt;/font&gt;&lt;/b&gt;" style="text;html=1;strokeColor=none;fillColor=none;align=center;verticalAlign=middle;whiteSpace=wrap;rounded=0;" vertex="1" parent="1">
          <mxGeometry x="-330" y="50" width="210" height="30" as="geometry" />
        </mxCell>
        <mxCell id="YjB5FXLg3M71PnOlWHJf-38" value="State &amp;amp; Event API" style="rounded=0;whiteSpace=wrap;html=1;fillColor=#ffe6cc;strokeColor=#d79b00;" vertex="1" parent="1">
          <mxGeometry x="-310" y="110" width="940" height="50" as="geometry" />
        </mxCell>
        <mxCell id="YjB5FXLg3M71PnOlWHJf-52" style="edgeStyle=orthogonalEdgeStyle;rounded=0;orthogonalLoop=1;jettySize=auto;html=1;exitX=0.5;exitY=0;exitDx=0;exitDy=0;entryX=0.25;entryY=1;entryDx=0;entryDy=0;" edge="1" parent="1" source="YjB5FXLg3M71PnOlWHJf-40" target="YjB5FXLg3M71PnOlWHJf-38">
          <mxGeometry relative="1" as="geometry" />
        </mxCell>
        <mxCell id="YjB5FXLg3M71PnOlWHJf-40" value="Services" style="rounded=0;whiteSpace=wrap;html=1;fillColor=#fff2cc;strokeColor=#d6b656;" vertex="1" parent="1">
          <mxGeometry x="-300" y="240" width="450" height="60" as="geometry" />
        </mxCell>
        <mxCell id="YjB5FXLg3M71PnOlWHJf-53" style="edgeStyle=orthogonalEdgeStyle;rounded=0;orthogonalLoop=1;jettySize=auto;html=1;exitX=0.5;exitY=0;exitDx=0;exitDy=0;entryX=0.75;entryY=1;entryDx=0;entryDy=0;" edge="1" parent="1" source="YjB5FXLg3M71PnOlWHJf-41" target="YjB5FXLg3M71PnOlWHJf-38">
          <mxGeometry relative="1" as="geometry" />
        </mxCell>
        <mxCell id="YjB5FXLg3M71PnOlWHJf-41" value="Layers" style="rounded=0;whiteSpace=wrap;html=1;fillColor=#fff2cc;strokeColor=#d6b656;" vertex="1" parent="1">
          <mxGeometry x="170" y="240" width="450" height="60" as="geometry" />
        </mxCell>
        <mxCell id="YjB5FXLg3M71PnOlWHJf-49" style="edgeStyle=orthogonalEdgeStyle;rounded=0;orthogonalLoop=1;jettySize=auto;html=1;exitX=0.25;exitY=0;exitDx=0;exitDy=0;" edge="1" parent="1" source="YjB5FXLg3M71PnOlWHJf-45" target="YjB5FXLg3M71PnOlWHJf-40">
          <mxGeometry relative="1" as="geometry" />
        </mxCell>
        <mxCell id="YjB5FXLg3M71PnOlWHJf-51" style="edgeStyle=orthogonalEdgeStyle;rounded=0;orthogonalLoop=1;jettySize=auto;html=1;exitX=0.75;exitY=0;exitDx=0;exitDy=0;entryX=0.5;entryY=1;entryDx=0;entryDy=0;" edge="1" parent="1" source="YjB5FXLg3M71PnOlWHJf-45" target="YjB5FXLg3M71PnOlWHJf-41">
          <mxGeometry relative="1" as="geometry" />
        </mxCell>
        <mxCell id="YjB5FXLg3M71PnOlWHJf-45" value="Context" style="rounded=0;whiteSpace=wrap;html=1;fillColor=#ffe6cc;strokeColor=#d79b00;" vertex="1" parent="1">
          <mxGeometry x="-310" y="340" width="940" height="50" as="geometry" />
        </mxCell>
        <mxCell id="YjB5FXLg3M71PnOlWHJf-48" value="&lt;b&gt;&lt;font style=&quot;font-size: 14px;&quot;&gt;runtime&lt;/font&gt;&lt;/b&gt;" style="text;html=1;strokeColor=none;fillColor=none;align=left;verticalAlign=middle;whiteSpace=wrap;rounded=0;" vertex="1" parent="1">
          <mxGeometry x="-300" y="190" width="210" height="30" as="geometry" />
        </mxCell>
        <mxCell id="YjB5FXLg3M71PnOlWHJf-54" style="edgeStyle=orthogonalEdgeStyle;rounded=0;orthogonalLoop=1;jettySize=auto;html=1;entryX=1;entryY=0.5;entryDx=0;entryDy=0;" edge="1" parent="1" source="YjB5FXLg3M71PnOlWHJf-21" target="YjB5FXLg3M71PnOlWHJf-25">
          <mxGeometry relative="1" as="geometry" />
        </mxCell>
        <mxCell id="YjB5FXLg3M71PnOlWHJf-55" style="edgeStyle=orthogonalEdgeStyle;rounded=0;orthogonalLoop=1;jettySize=auto;html=1;exitX=0;exitY=0.5;exitDx=0;exitDy=0;entryX=1;entryY=0.5;entryDx=0;entryDy=0;" edge="1" parent="1" source="YjB5FXLg3M71PnOlWHJf-31" target="YjB5FXLg3M71PnOlWHJf-26">
          <mxGeometry relative="1" as="geometry" />
        </mxCell>
        <mxCell id="YjB5FXLg3M71PnOlWHJf-56" style="edgeStyle=orthogonalEdgeStyle;rounded=0;orthogonalLoop=1;jettySize=auto;html=1;exitX=0;exitY=0.5;exitDx=0;exitDy=0;" edge="1" parent="1" source="YjB5FXLg3M71PnOlWHJf-31" target="YjB5FXLg3M71PnOlWHJf-27">
          <mxGeometry relative="1" as="geometry" />
        </mxCell>
        <mxCell id="YjB5FXLg3M71PnOlWHJf-57" style="edgeStyle=orthogonalEdgeStyle;rounded=0;orthogonalLoop=1;jettySize=auto;html=1;exitX=1;exitY=0.5;exitDx=0;exitDy=0;entryX=1;entryY=0.5;entryDx=0;entryDy=0;" edge="1" parent="1" source="YjB5FXLg3M71PnOlWHJf-13" target="YjB5FXLg3M71PnOlWHJf-17">
          <mxGeometry relative="1" as="geometry" />
        </mxCell>
        <mxCell id="YjB5FXLg3M71PnOlWHJf-59" style="edgeStyle=orthogonalEdgeStyle;rounded=0;orthogonalLoop=1;jettySize=auto;html=1;exitX=0;exitY=0.5;exitDx=0;exitDy=0;entryX=0;entryY=0.5;entryDx=0;entryDy=0;" edge="1" parent="1" source="YjB5FXLg3M71PnOlWHJf-17" target="YjB5FXLg3M71PnOlWHJf-19">
          <mxGeometry relative="1" as="geometry" />
        </mxCell>
      </root>
    </mxGraphModel>
  </diagram>
</mxfile>
